<?xml version="1.0" encoding="UTF-8" standalone="no"?>
<svg width="499px" height="500px" viewBox="0 0 499 500" version="1.1" xmlns="http://www.w3.org/2000/svg" xmlns:xlink="http://www.w3.org/1999/xlink" xmlns:sketch="http://www.bohemiancoding.com/sketch/ns">
    <!-- Generator: Sketch 3.4.4 (17249) - http://www.bohemiancoding.com/sketch -->
    <title>Oval 1</title>
    <desc>Created with Sketch.</desc>
    <defs></defs>
    <g id="Page-2" stroke="none" stroke-width="1" fill="none" fill-rule="evenodd" sketch:type="MSPage">
        <g id="Artboard-21-Copy-7" sketch:type="MSArtboardGroup" fill="#F75C5F">
            <g id="Oval-1" sketch:type="MSLayerGroup" transform="translate(-1.000000, 0.000000)">
                <path d="M46.200834,291.173724 C62.686481,372.885515 126.987624,437.250895 208.617866,453.753011 C208.484676,455.109111 208.4165,456.484315 208.4165,457.875458 C208.4165,480.864334 227.034067,499.5005 250,499.5005 C272.965933,499.5005 291.5835,480.864334 291.5835,457.875458 C291.5835,456.484315 291.515324,455.109111 291.382134,453.753011 C373.012376,437.250895 437.313519,372.885515 453.799166,291.173724 C455.153912,291.307047 456.527744,291.375291 457.917498,291.375291 C480.883431,291.375291 499.500998,272.739125 499.500998,249.75025 C499.500998,226.761374 480.883431,208.125208 457.917498,208.125208 C456.527744,208.125208 455.153912,208.193452 453.799166,208.326775 C437.313519,126.614985 373.012376,62.2496044 291.382134,45.7474881 C291.515324,44.3913887 291.5835,43.0161848 291.5835,41.6250416 C291.5835,18.6361659 272.965933,0 250,0 C227.034067,0 208.4165,18.6361659 208.4165,41.6250416 C208.4165,43.0161848 208.484676,44.3913887 208.617866,45.7474881 C126.987624,62.2496044 62.686481,126.614985 46.200834,208.326775 C44.8460879,208.193452 43.4722564,208.125208 42.0825017,208.125208 C21.3188145,208.125208 4.10953179,223.358626 0.99999941,243.26958 L1,233.793918 C0.667675799,239.069909 0.499001996,244.390362 0.499001996,249.75025 C0.499001996,255.110138 0.667675801,260.430591 0.999999857,265.70658 L1,256.230923 C4.10953179,276.141874 21.3188145,291.375291 42.0825017,291.375291 C43.4722564,291.375291 44.8460879,291.307047 46.200834,291.173724 Z M72.0916819,278.565136 C84.3677465,355.104253 144.75114,415.54797 221.213871,427.836298 C228.685199,420.660453 238.828104,416.250416 250,416.250416 C261.171896,416.250416 271.314801,420.660453 278.786129,427.836298 C355.24886,415.54797 415.632253,355.104253 427.908318,278.565136 C420.739634,271.086344 416.333999,260.933307 416.333999,249.75025 C416.333999,238.567193 420.739634,228.414155 427.908318,220.935364 C415.632253,144.396246 355.24886,83.9525295 278.786129,71.6642011 C271.314801,78.840047 261.171896,83.2500833 250,83.2500833 C238.828104,83.2500833 228.685199,78.840047 221.213871,71.6642011 C144.75114,83.9525295 84.3677465,144.396246 72.0916819,220.935364 C79.2603663,228.414155 83.6660013,238.567193 83.6660013,249.75025 C83.6660013,260.933307 79.2603663,271.086344 72.0916819,278.565136 Z M333,14.1522469 C403.888154,39.1755614 460.095252,95.3489496 485.215521,166.250249 L455.556415,166.25025 C432.998074,110.661584 388.589151,66.2910144 333.000001,43.8195549 L333,14.1522469 Z M165.999999,14.5076579 C95.6666773,39.674894 39.9184763,95.5503404 14.873293,165.999999 L44.5453168,166 C66.9994464,110.861959 110.961647,66.7900625 166,44.2266514 L166,14.5076558 Z M333,485.348253 C403.888154,460.324938 460.095252,404.15155 485.215521,333.250251 L455.556415,333.25025 C432.998074,388.838916 388.589151,433.209485 333.000001,455.680945 L333,485.348253 Z M165.999999,484.992842 C95.5002006,459.766035 39.6546497,403.685476 14.6959659,333 L44.3422097,333 C66.7336728,388.371806 110.795217,432.642207 166,455.273848 L166,484.992844 Z M250,138.750139 L346.032979,194.250194 L346.032979,305.250305 L250,360.750361 L153.967021,305.250305 L153.967021,194.250194 L250,138.750139 Z" sketch:type="MSShapeGroup"></path>
            </g>
        </g>
    </g>
</svg>