<?xml version="1.0" encoding="UTF-8" standalone="no"?>
<svg width="1920px" height="1080px" viewBox="0 0 1920 1080" version="1.1" xmlns="http://www.w3.org/2000/svg" xmlns:xlink="http://www.w3.org/1999/xlink" xmlns:sketch="http://www.bohemiancoding.com/sketch/ns">
    <!-- Generator: Sketch 3.4.4 (17249) - http://www.bohemiancoding.com/sketch -->
    <title>Artboard 5</title>
    <desc>Created with Sketch.</desc>
    <defs></defs>
    <g id="Page-4" stroke="none" stroke-width="1" fill="none" fill-rule="evenodd" sketch:type="MSPage">
        <g id="Artboard-5" sketch:type="MSArtboardGroup">
            <rect id="Rectangle-13" fill="#F75C5F" sketch:type="MSShapeGroup" x="0" y="0" width="1920" height="1080"></rect>
            <path d="M300.804499,584.885275 C318.576027,672.970585 387.892659,742.356465 475.89006,760.145746 C475.746481,761.607621 475.672987,763.090091 475.672987,764.589744 C475.672987,789.371752 495.742725,809.461538 520.5,809.461538 C545.257275,809.461538 565.327013,789.371752 565.327013,764.589744 C565.327013,763.090091 565.253519,761.607621 565.10994,760.145746 C653.107341,742.356465 722.423973,672.970585 740.195501,584.885275 C741.655917,585.028997 743.136908,585.102564 744.635063,585.102564 C769.392339,585.102564 789.462076,565.012777 789.462076,540.230769 C789.462076,515.448761 769.392339,495.358974 744.635063,495.358974 C743.136908,495.358974 741.655917,495.432541 740.195501,495.576264 C722.423973,407.490953 653.107341,338.105074 565.10994,320.315792 C565.253519,318.853917 565.327013,317.371447 565.327013,315.871795 C565.327013,291.089787 545.257275,271 520.5,271 C495.742725,271 475.672987,291.089787 475.672987,315.871795 C475.672987,317.371447 475.746481,318.853917 475.89006,320.315792 C387.892659,338.105074 318.576027,407.490953 300.804499,495.576264 C299.344083,495.432541 297.863092,495.358974 296.364937,495.358974 C273.981682,495.358974 255.430075,511.780598 252.077999,533.244607 L252.078,523.029843 C251.719755,528.717362 251.537924,534.45281 251.537924,540.230769 C251.537924,546.008729 251.719755,551.744177 252.078,557.431693 L252.078,547.216935 C255.430075,568.68094 273.981682,585.102564 296.364937,585.102564 C297.863092,585.102564 299.344083,585.028997 300.804499,584.885275 Z M328.714833,571.293216 C341.948431,653.802385 407.041729,718.960712 489.468553,732.20753 C497.522645,724.471968 508.456696,719.717949 520.5,719.717949 C532.543304,719.717949 543.477355,724.471968 551.531447,732.20753 C633.958271,718.960712 699.051569,653.802385 712.285167,571.293216 C704.557325,563.231079 699.808051,552.286104 699.808051,540.230769 C699.808051,528.175434 704.557325,517.23046 712.285167,509.168322 C699.051569,426.659154 633.958271,361.500827 551.531447,348.254009 C543.477355,355.989571 532.543304,360.74359 520.5,360.74359 C508.456696,360.74359 497.522645,355.989571 489.468553,348.254009 C407.041729,361.500827 341.948431,426.659154 328.714833,509.168322 C336.442675,517.23046 341.191949,528.175434 341.191949,540.230769 C341.191949,552.286104 336.442675,563.231079 328.714833,571.293216 Z M609.974001,286.256122 C686.39143,313.231255 746.982682,373.786168 774.062332,450.217768 L742.089815,450.217769 C717.771924,390.293187 669.899105,342.461713 609.974001,318.23748 L609.974,286.25612 Z M429.947999,286.639255 C354.128678,313.769536 294.032117,374.003267 267.03341,449.947999 L299.019851,449.948 C323.225403,390.509192 370.616656,342.999687 429.948,318.67633 L429.948,286.639253 Z M609.974001,794.205416 C686.39143,767.230283 746.982682,706.675371 774.062332,630.243771 L742.089815,630.243769 C717.771924,690.168351 669.899105,737.999825 609.974001,762.224058 L609.974,794.205418 Z M429.947999,793.822283 C353.949216,766.627786 293.747712,706.172944 266.842251,629.974 L298.800902,629.974 C322.938899,689.664807 370.437243,737.3883 429.948,761.785208 L429.948,793.822285 Z M520.5,420.57265 L624.023551,480.401709 L624.023551,600.059829 L520.5,659.888889 L416.976449,600.059829 L416.976449,480.401709 L520.5,420.57265 Z" id="Oval-1" fill="#FFFFFF" sketch:type="MSShapeGroup"></path>
            <path d="M1203.86328,388.71875 L1162.09766,388.71875 L1147.75391,425 L1139.80859,425 L1181.15234,321.78125 L1185.72266,321.78125 L1226.22266,425 L1218.13672,425 L1203.86328,388.71875 Z M1164.69922,382.25 L1201.47266,382.25 L1187.48047,345.195312 C1186.30859,342.289048 1184.90235,338.257838 1183.26172,333.101562 C1181.99609,337.601585 1180.61329,341.679669 1179.11328,345.335938 L1164.69922,382.25 Z M1269.88672,426.40625 C1258.77729,426.40625 1250.11722,422.984409 1243.90625,416.140625 C1237.69528,409.296841 1234.58984,399.710999 1234.58984,387.382812 C1234.58984,375.195252 1237.58981,365.43363 1243.58984,358.097656 C1249.58987,350.761682 1257.67573,347.09375 1267.84766,347.09375 C1276.8477,347.09375 1283.94919,350.234344 1289.15234,356.515625 C1294.35549,362.796906 1296.95703,371.328071 1296.95703,382.109375 L1296.95703,387.734375 L1241.90234,387.734375 C1241.99609,398.234428 1244.44529,406.249972 1249.25,411.78125 C1254.05471,417.312528 1260.93355,420.078125 1269.88672,420.078125 C1274.24612,420.078125 1278.07811,419.773441 1281.38281,419.164062 C1284.68752,418.554684 1288.87107,417.242198 1293.93359,415.226562 L1293.93359,421.554688 C1289.62107,423.429697 1285.63674,424.707028 1281.98047,425.386719 C1278.3242,426.06641 1274.29299,426.40625 1269.88672,426.40625 L1269.88672,426.40625 Z M1267.84766,353.28125 C1260.48824,353.28125 1254.58205,355.707007 1250.12891,360.558594 C1245.67576,365.410181 1243.07422,372.406204 1242.32422,381.546875 L1289.57422,381.546875 C1289.57422,372.687456 1287.65236,365.761744 1283.80859,360.769531 C1279.96482,355.777319 1274.64457,353.28125 1267.84766,353.28125 L1267.84766,353.28125 Z M1377.67578,348.570312 L1377.67578,353.421875 L1361.85547,354.40625 C1366.07424,359.656276 1368.18359,365.421844 1368.18359,371.703125 C1368.18359,379.062537 1365.7344,385.027321 1360.83594,389.597656 C1355.93748,394.167992 1349.36332,396.453125 1341.11328,396.453125 C1337.64451,396.453125 1335.20704,396.312501 1333.80078,396.03125 C1331.03514,397.484382 1328.92579,399.195303 1327.47266,401.164062 C1326.01952,403.132822 1325.29297,405.218739 1325.29297,407.421875 C1325.29297,409.859387 1326.21874,411.640619 1328.07031,412.765625 C1329.92188,413.890631 1333.02732,414.453125 1337.38672,414.453125 L1350.74609,414.453125 C1359.04301,414.453125 1365.39451,416.128889 1369.80078,419.480469 C1374.20705,422.832048 1376.41016,427.78903 1376.41016,434.351562 C1376.41016,442.414103 1373.14066,448.636697 1366.60156,453.019531 C1360.06247,457.402366 1350.74615,459.59375 1338.65234,459.59375 C1329.04292,459.59375 1321.60159,457.742206 1316.32812,454.039062 C1311.05466,450.335919 1308.41797,445.179721 1308.41797,438.570312 C1308.41797,433.320286 1310.04686,428.960955 1313.30469,425.492188 C1316.56252,422.02342 1320.98044,419.656256 1326.55859,418.390625 C1324.26171,417.406245 1322.42188,416.011728 1321.03906,414.207031 C1319.65624,412.402335 1318.96484,410.328137 1318.96484,407.984375 C1318.96484,402.874974 1322.22262,398.375019 1328.73828,394.484375 C1324.28513,392.656241 1320.81642,389.785176 1318.33203,385.871094 C1315.84764,381.957012 1314.60547,377.468775 1314.60547,372.40625 C1314.60547,364.765587 1317.03123,358.636742 1321.88281,354.019531 C1326.7344,349.402321 1333.28512,347.09375 1341.53516,347.09375 C1346.55081,347.09375 1350.44139,347.585933 1353.20703,348.570312 L1377.67578,348.570312 Z M1315.80078,437.9375 C1315.80078,448.437552 1323.60539,453.6875 1339.21484,453.6875 C1359.27744,453.6875 1369.30859,447.289126 1369.30859,434.492188 C1369.30859,429.898415 1367.7383,426.570323 1364.59766,424.507812 C1361.45702,422.445302 1356.37113,421.414062 1349.33984,421.414062 L1336.82422,421.414062 C1322.80852,421.414062 1315.80078,426.92182 1315.80078,437.9375 L1315.80078,437.9375 Z M1321.63672,372.40625 C1321.63672,378.31253 1323.42967,382.894515 1327.01562,386.152344 C1330.60158,389.410173 1335.3945,391.039062 1341.39453,391.039062 C1347.76956,391.039062 1352.65623,389.421891 1356.05469,386.1875 C1359.45314,382.953109 1361.15234,378.265656 1361.15234,372.125 C1361.15234,365.609342 1359.40627,360.722673 1355.91406,357.464844 C1352.42186,354.207015 1347.53519,352.578125 1341.25391,352.578125 C1335.16013,352.578125 1330.3672,354.324201 1326.875,357.816406 C1323.3828,361.308611 1321.63672,366.171844 1321.63672,372.40625 L1321.63672,372.40625 Z M1400.31641,425 L1393.35547,425 L1393.35547,348.570312 L1400.31641,348.570312 L1400.31641,425 Z M1392.37109,327.335938 C1392.37109,322.835915 1393.84764,320.585938 1396.80078,320.585938 C1398.25391,320.585938 1399.39062,321.171869 1400.21094,322.34375 C1401.03125,323.515631 1401.44141,325.179677 1401.44141,327.335938 C1401.44141,329.445323 1401.03125,331.109369 1400.21094,332.328125 C1399.39062,333.546881 1398.25391,334.15625 1396.80078,334.15625 C1393.84764,334.15625 1392.37109,331.882835 1392.37109,327.335938 L1392.37109,327.335938 Z M1473.30078,405.101562 C1473.30078,411.945347 1470.69924,417.207013 1465.49609,420.886719 C1460.29294,424.566425 1452.9102,426.40625 1443.34766,426.40625 C1433.12886,426.40625 1425.01956,424.835953 1419.01953,421.695312 L1419.01953,414.171875 C1426.70707,418.015644 1434.81636,419.9375 1443.34766,419.9375 C1450.89457,419.9375 1456.62498,418.683606 1460.53906,416.175781 C1464.45314,413.667956 1466.41016,410.328146 1466.41016,406.15625 C1466.41016,402.312481 1464.85158,399.078138 1461.73438,396.453125 C1458.61717,393.828112 1453.49613,391.250013 1446.37109,388.71875 C1438.73043,385.953111 1433.3633,383.574229 1430.26953,381.582031 C1427.17577,379.589834 1424.84376,377.339856 1423.27344,374.832031 C1421.70312,372.324206 1420.91797,369.265643 1420.91797,365.65625 C1420.91797,359.937471 1423.32029,355.414079 1428.125,352.085938 C1432.92971,348.757796 1439.64449,347.09375 1448.26953,347.09375 C1456.51957,347.09375 1464.34762,348.64061 1471.75391,351.734375 L1469.15234,358.0625 C1461.65231,354.968735 1454.69144,353.421875 1448.26953,353.421875 C1442.03513,353.421875 1437.08986,354.453115 1433.43359,356.515625 C1429.77733,358.578135 1427.94922,361.437482 1427.94922,365.09375 C1427.94922,369.078145 1429.36717,372.265613 1432.20312,374.65625 C1435.03908,377.046887 1440.58199,379.718735 1448.83203,382.671875 C1455.72269,385.156262 1460.73827,387.394521 1463.87891,389.386719 C1467.01955,391.378916 1469.37499,393.640612 1470.94531,396.171875 C1472.51563,398.703138 1473.30078,401.67967 1473.30078,405.101562 L1473.30078,405.101562 Z M972.113281,621 L964.941406,621 L964.941406,518.203125 L1021.26172,518.203125 L1021.26172,524.8125 L972.113281,524.8125 L972.113281,568.40625 L1018.51953,568.40625 L1018.51953,575.085938 L972.113281,575.085938 L972.113281,621 Z M1065.55859,543.09375 C1068.79298,543.09375 1072.2617,543.421872 1075.96484,544.078125 L1074.62891,550.757812 C1071.44139,549.960934 1068.13674,549.5625 1064.71484,549.5625 C1058.19919,549.5625 1052.85549,552.328097 1048.68359,557.859375 C1044.5117,563.390653 1042.42578,570.374958 1042.42578,578.8125 L1042.42578,621 L1035.46484,621 L1035.46484,544.570312 L1041.37109,544.570312 L1042.07422,558.351562 L1042.56641,558.351562 C1045.70705,552.726534 1049.05858,548.777355 1052.62109,546.503906 C1056.18361,544.230457 1060.49607,543.09375 1065.55859,543.09375 L1065.55859,543.09375 Z M1135.02734,621 L1133.26953,608.90625 L1132.70703,608.90625 C1128.86326,613.82815 1124.91408,617.308584 1120.85938,619.347656 C1116.80467,621.386729 1112.01175,622.40625 1106.48047,622.40625 C1098.98043,622.40625 1093.14455,620.484394 1088.97266,616.640625 C1084.80076,612.796856 1082.71484,607.476596 1082.71484,600.679688 C1082.71484,593.226525 1085.82028,587.437521 1092.03125,583.3125 C1098.24222,579.187479 1107.23041,577.007814 1118.99609,576.773438 L1133.55078,576.351562 L1133.55078,571.289062 C1133.55078,564.023401 1132.07423,558.539081 1129.12109,554.835938 C1126.16795,551.132794 1121.41019,549.28125 1114.84766,549.28125 C1107.7695,549.28125 1100.43363,551.24998 1092.83984,555.1875 L1090.23828,549.140625 C1098.62895,545.203105 1106.92574,543.234375 1115.12891,543.234375 C1123.51957,543.234375 1129.78904,545.414041 1133.9375,549.773438 C1138.08596,554.132834 1140.16016,560.929641 1140.16016,570.164062 L1140.16016,621 L1135.02734,621 Z M1106.90234,616.078125 C1115.05863,616.078125 1121.49216,613.746117 1126.20312,609.082031 C1130.91409,604.417945 1133.26953,597.937541 1133.26953,589.640625 L1133.26953,582.117188 L1119.91016,582.679688 C1109.17573,583.195315 1101.52346,584.87108 1096.95312,587.707031 C1092.38279,590.542983 1090.09766,594.960907 1090.09766,600.960938 C1090.09766,605.742211 1091.56249,609.457018 1094.49219,612.105469 C1097.42189,614.753919 1101.55857,616.078125 1106.90234,616.078125 L1106.90234,616.078125 Z M1260.39453,621 L1260.39453,570.867188 C1260.39453,563.414025 1258.94142,557.97658 1256.03516,554.554688 C1253.12889,551.132795 1248.67581,549.421875 1242.67578,549.421875 C1234.84762,549.421875 1229.05861,551.578103 1225.30859,555.890625 C1221.55858,560.203147 1219.68359,566.976516 1219.68359,576.210938 L1219.68359,621 L1212.58203,621 L1212.58203,568.757812 C1212.58203,555.867123 1206.67584,549.421875 1194.86328,549.421875 C1186.84762,549.421875 1181.01174,551.753883 1177.35547,556.417969 C1173.6992,561.082055 1171.87109,568.546824 1171.87109,578.8125 L1171.87109,621 L1164.91016,621 L1164.91016,544.570312 L1170.67578,544.570312 L1172.15234,555.046875 L1172.57422,555.046875 C1174.6836,551.249981 1177.68357,548.308604 1181.57422,546.222656 C1185.46486,544.136708 1189.75388,543.09375 1194.44141,543.09375 C1206.48834,543.09375 1214.22264,547.617142 1217.64453,556.664062 L1217.92578,556.664062 C1220.41017,552.304666 1223.74998,548.953137 1227.94531,546.609375 C1232.14065,544.265613 1236.91013,543.09375 1242.25391,543.09375 C1250.5977,543.09375 1256.85545,545.32029 1261.02734,549.773438 C1265.19924,554.226585 1267.28516,561.304639 1267.28516,571.007812 L1267.28516,621 L1260.39453,621 Z M1322.90234,622.40625 C1311.79291,622.40625 1303.13284,618.984409 1296.92188,612.140625 C1290.71091,605.296841 1287.60547,595.710999 1287.60547,583.382812 C1287.60547,571.195252 1290.60544,561.43363 1296.60547,554.097656 C1302.6055,546.761682 1310.69136,543.09375 1320.86328,543.09375 C1329.86333,543.09375 1336.96482,546.234344 1342.16797,552.515625 C1347.37112,558.796906 1349.97266,567.328071 1349.97266,578.109375 L1349.97266,583.734375 L1294.91797,583.734375 C1295.01172,594.234428 1297.46091,602.249972 1302.26562,607.78125 C1307.07034,613.312528 1313.94917,616.078125 1322.90234,616.078125 C1327.26174,616.078125 1331.09373,615.773441 1334.39844,615.164062 C1337.70314,614.554684 1341.88669,613.242198 1346.94922,611.226562 L1346.94922,617.554688 C1342.6367,619.429697 1338.65236,620.707028 1334.99609,621.386719 C1331.33983,622.06641 1327.30862,622.40625 1322.90234,622.40625 L1322.90234,622.40625 Z M1320.86328,549.28125 C1313.50387,549.28125 1307.59768,551.707007 1303.14453,556.558594 C1298.69138,561.410181 1296.08985,568.406204 1295.33984,577.546875 L1342.58984,577.546875 C1342.58984,568.687456 1340.66799,561.761744 1336.82422,556.769531 C1332.98045,551.777319 1327.66019,549.28125 1320.86328,549.28125 L1320.86328,549.28125 Z M1429.28516,621 L1412.55078,569.882812 C1411.47265,566.414045 1410.08985,561.328159 1408.40234,554.625 L1407.98047,554.625 L1406.50391,559.828125 L1403.33984,570.023438 L1386.32422,621 L1379.43359,621 L1357.56641,544.570312 L1365.01953,544.570312 L1377.25391,588.867188 C1380.1133,599.835992 1381.98828,607.898412 1382.87891,613.054688 L1383.30078,613.054688 C1386.06642,602.085883 1388.08202,594.796893 1389.34766,591.1875 L1405.09766,544.570312 L1411.42578,544.570312 L1426.40234,591.046875 C1429.77736,602.062555 1431.83984,609.351545 1432.58984,612.914062 L1433.01172,612.914062 C1433.38672,609.867172 1435.2617,601.711004 1438.63672,588.445312 L1450.30859,544.570312 L1457.33984,544.570312 L1436.59766,621 L1429.28516,621 Z M1535.52734,582.679688 C1535.52734,595.1485 1532.50394,604.886684 1526.45703,611.894531 C1520.41013,618.902379 1512.06646,622.40625 1501.42578,622.40625 C1494.72262,622.40625 1488.81643,620.789079 1483.70703,617.554688 C1478.59763,614.320296 1474.68361,609.679718 1471.96484,603.632812 C1469.24608,597.585907 1467.88672,590.601602 1467.88672,582.679688 C1467.88672,570.210875 1470.91013,560.496129 1476.95703,553.535156 C1483.00394,546.574184 1491.30073,543.09375 1501.84766,543.09375 C1512.34771,543.09375 1520.58591,546.621058 1526.5625,553.675781 C1532.53909,560.730504 1535.52734,570.398376 1535.52734,582.679688 L1535.52734,582.679688 Z M1475.19922,582.679688 C1475.19922,593.17974 1477.50779,601.371064 1482.125,607.253906 C1486.74221,613.136748 1493.26949,616.078125 1501.70703,616.078125 C1510.14457,616.078125 1516.67185,613.136748 1521.28906,607.253906 C1525.90627,601.371064 1528.21484,593.17974 1528.21484,582.679688 C1528.21484,572.13276 1525.88284,563.953154 1521.21875,558.140625 C1516.55466,552.328096 1510.00395,549.421875 1501.56641,549.421875 C1493.12886,549.421875 1486.62502,552.316377 1482.05469,558.105469 C1477.48435,563.89456 1475.19922,572.085885 1475.19922,582.679688 L1475.19922,582.679688 Z M1586.78516,543.09375 C1590.01955,543.09375 1593.48826,543.421872 1597.19141,544.078125 L1595.85547,550.757812 C1592.66795,549.960934 1589.3633,549.5625 1585.94141,549.5625 C1579.42575,549.5625 1574.08205,552.328097 1569.91016,557.859375 C1565.73826,563.390653 1563.65234,570.374958 1563.65234,578.8125 L1563.65234,621 L1556.69141,621 L1556.69141,544.570312 L1562.59766,544.570312 L1563.30078,558.351562 L1563.79297,558.351562 C1566.93361,552.726534 1570.28514,548.777355 1573.84766,546.503906 C1577.41017,544.230457 1581.72263,543.09375 1586.78516,543.09375 L1586.78516,543.09375 Z M1619.55078,587.460938 L1658.57422,544.570312 L1667.01172,544.570312 L1636.91797,577.195312 L1669.61328,621 L1661.24609,621 L1632.20703,582.398438 L1619.69141,593.789062 L1619.69141,621 L1612.73047,621 L1612.73047,511.59375 L1619.69141,511.59375 L1619.69141,566.4375 L1619.19922,587.460938 L1619.55078,587.460938 Z" id="Aegis-" fill="#FFFFFF" sketch:type="MSShapeGroup"></path>
            <path d="M1001.85938,791 L1001.85938,745.3125 L1005.04688,745.3125 L1005.04688,788 L1026.82812,788 L1026.82812,791 L1001.85938,791 Z M1047.64062,791.625 C1042.7031,791.625 1038.85418,790.104182 1036.09375,787.0625 C1033.33332,784.020818 1031.95312,779.760444 1031.95312,774.28125 C1031.95312,768.864556 1033.28645,764.526058 1035.95312,761.265625 C1038.61981,758.005192 1042.21352,756.375 1046.73438,756.375 C1050.7344,756.375 1053.89061,757.770819 1056.20312,760.5625 C1058.51564,763.354181 1059.67188,767.145809 1059.67188,771.9375 L1059.67188,774.4375 L1035.20312,774.4375 C1035.24479,779.10419 1036.33332,782.666654 1038.46875,785.125 C1040.60418,787.583346 1043.66144,788.8125 1047.64062,788.8125 C1049.57813,788.8125 1051.28124,788.677085 1052.75,788.40625 C1054.21876,788.135415 1056.07811,787.552088 1058.32812,786.65625 L1058.32812,789.46875 C1056.41145,790.302087 1054.64063,790.86979 1053.01562,791.171875 C1051.39062,791.47396 1049.59897,791.625 1047.64062,791.625 L1047.64062,791.625 Z M1046.73438,759.125 C1043.46353,759.125 1040.83855,760.203114 1038.85938,762.359375 C1036.8802,764.515636 1035.72396,767.62498 1035.39062,771.6875 L1056.39062,771.6875 C1056.39062,767.74998 1055.53647,764.671886 1053.82812,762.453125 C1052.11978,760.234364 1049.75522,759.125 1046.73438,759.125 L1046.73438,759.125 Z M1089.67188,791 L1088.89062,785.625 L1088.64062,785.625 C1086.93228,787.812511 1085.17709,789.35937 1083.375,790.265625 C1081.57291,791.17188 1079.44272,791.625 1076.98438,791.625 C1073.65103,791.625 1071.0573,790.770842 1069.20312,789.0625 C1067.34895,787.354158 1066.42188,784.989598 1066.42188,781.96875 C1066.42188,778.656233 1067.80207,776.083342 1070.5625,774.25 C1073.32293,772.416658 1077.31768,771.447917 1082.54688,771.34375 L1089.01562,771.15625 L1089.01562,768.90625 C1089.01562,765.677067 1088.35938,763.239592 1087.04688,761.59375 C1085.73437,759.947908 1083.61981,759.125 1080.70312,759.125 C1077.55728,759.125 1074.29689,759.999991 1070.92188,761.75 L1069.76562,759.0625 C1073.49481,757.312491 1077.18227,756.4375 1080.82812,756.4375 C1084.55731,756.4375 1087.34374,757.40624 1089.1875,759.34375 C1091.03126,761.28126 1091.95312,764.302063 1091.95312,768.40625 L1091.95312,791 L1089.67188,791 Z M1077.17188,788.8125 C1080.79689,788.8125 1083.65624,787.776052 1085.75,785.703125 C1087.84376,783.630198 1088.89062,780.750018 1088.89062,777.0625 L1088.89062,773.71875 L1082.95312,773.96875 C1078.18227,774.197918 1074.78126,774.942702 1072.75,776.203125 C1070.71874,777.463548 1069.70312,779.42707 1069.70312,782.09375 C1069.70312,784.218761 1070.35416,785.869786 1071.65625,787.046875 C1072.95834,788.223964 1074.79686,788.8125 1077.17188,788.8125 L1077.17188,788.8125 Z M1116.32812,756.375 C1117.76563,756.375 1119.30728,756.520832 1120.95312,756.8125 L1120.35938,759.78125 C1118.9427,759.427082 1117.47397,759.25 1115.95312,759.25 C1113.05728,759.25 1110.6823,760.479154 1108.82812,762.9375 C1106.97395,765.395846 1106.04688,768.499981 1106.04688,772.25 L1106.04688,791 L1102.95312,791 L1102.95312,757.03125 L1105.57812,757.03125 L1105.89062,763.15625 L1106.10938,763.15625 C1107.50522,760.656237 1108.99478,758.901047 1110.57812,757.890625 C1112.16147,756.880203 1114.07811,756.375 1116.32812,756.375 L1116.32812,756.375 Z M1151.54688,791 L1151.54688,768.96875 C1151.54688,765.552066 1150.82813,763.067716 1149.39062,761.515625 C1147.95312,759.963534 1145.72397,759.1875 1142.70312,759.1875 C1138.6406,759.1875 1135.66668,760.213531 1133.78125,762.265625 C1131.89582,764.317719 1130.95312,767.64581 1130.95312,772.25 L1130.95312,791 L1127.85938,791 L1127.85938,757.03125 L1130.48438,757.03125 L1131.07812,761.6875 L1131.26562,761.6875 C1133.47397,758.145816 1137.40101,756.375 1143.04688,756.375 C1150.75525,756.375 1154.60938,760.510375 1154.60938,768.78125 L1154.60938,791 L1151.54688,791 Z M1164.98438,788.5625 C1164.98438,786.520823 1165.8177,785.5 1167.48438,785.5 C1169.19272,785.5 1170.04688,786.520823 1170.04688,788.5625 C1170.04688,790.604177 1169.19272,791.625 1167.48438,791.625 C1165.8177,791.625 1164.98438,790.604177 1164.98438,788.5625 L1164.98438,788.5625 Z M1232.92188,767.71875 C1232.92188,775.385455 1230.91148,781.182272 1226.89062,785.109375 C1222.86977,789.036478 1216.96358,791 1209.17188,791 L1198.23438,791 L1198.23438,745.3125 L1210.57812,745.3125 C1217.86983,745.3125 1223.41665,747.218731 1227.21875,751.03125 C1231.02085,754.843769 1232.92188,760.406213 1232.92188,767.71875 L1232.92188,767.71875 Z M1229.45312,767.84375 C1229.45312,761.302051 1227.79168,756.380225 1224.46875,753.078125 C1221.14582,749.776025 1216.26566,748.125 1209.82812,748.125 L1201.42188,748.125 L1201.42188,788.1875 L1208.98438,788.1875 C1222.63028,788.1875 1229.45312,781.406318 1229.45312,767.84375 L1229.45312,767.84375 Z M1256.35938,791.625 C1251.42185,791.625 1247.57293,790.104182 1244.8125,787.0625 C1242.05207,784.020818 1240.67188,779.760444 1240.67188,774.28125 C1240.67188,768.864556 1242.0052,764.526058 1244.67188,761.265625 C1247.33856,758.005192 1250.93227,756.375 1255.45312,756.375 C1259.45315,756.375 1262.60936,757.770819 1264.92188,760.5625 C1267.23439,763.354181 1268.39062,767.145809 1268.39062,771.9375 L1268.39062,774.4375 L1243.92188,774.4375 C1243.96354,779.10419 1245.05207,782.666654 1247.1875,785.125 C1249.32293,787.583346 1252.38019,788.8125 1256.35938,788.8125 C1258.29688,788.8125 1259.99999,788.677085 1261.46875,788.40625 C1262.93751,788.135415 1264.79686,787.552088 1267.04688,786.65625 L1267.04688,789.46875 C1265.1302,790.302087 1263.35938,790.86979 1261.73438,791.171875 C1260.10937,791.47396 1258.31772,791.625 1256.35938,791.625 L1256.35938,791.625 Z M1255.45312,759.125 C1252.18228,759.125 1249.5573,760.203114 1247.57812,762.359375 C1245.59895,764.515636 1244.44271,767.62498 1244.10938,771.6875 L1265.10938,771.6875 C1265.10938,767.74998 1264.25522,764.671886 1262.54688,762.453125 C1260.83853,760.234364 1258.47397,759.125 1255.45312,759.125 L1255.45312,759.125 Z M1298.82812,782.15625 C1298.82812,785.197932 1297.67189,787.53645 1295.35938,789.171875 C1293.04686,790.8073 1289.76565,791.625 1285.51562,791.625 C1280.97394,791.625 1277.36981,790.92709 1274.70312,789.53125 L1274.70312,786.1875 C1278.11981,787.895842 1281.72394,788.75 1285.51562,788.75 C1288.86981,788.75 1291.41666,788.192714 1293.15625,787.078125 C1294.89584,785.963536 1295.76562,784.479176 1295.76562,782.625 C1295.76562,780.916658 1295.07292,779.479173 1293.6875,778.3125 C1292.30208,777.145827 1290.02606,776.000006 1286.85938,774.875 C1283.46352,773.645827 1281.07813,772.588546 1279.70312,771.703125 C1278.32812,770.817704 1277.29167,769.817714 1276.59375,768.703125 C1275.89583,767.588536 1275.54688,766.229175 1275.54688,764.625 C1275.54688,762.083321 1276.61457,760.072924 1278.75,758.59375 C1280.88543,757.114576 1283.86977,756.375 1287.70312,756.375 C1291.36981,756.375 1294.84894,757.062493 1298.14062,758.4375 L1296.98438,761.25 C1293.65103,759.874993 1290.55731,759.1875 1287.70312,759.1875 C1284.93228,759.1875 1282.73438,759.645829 1281.10938,760.5625 C1279.48437,761.479171 1278.67188,762.749992 1278.67188,764.375 C1278.67188,766.145842 1279.30208,767.562495 1280.5625,768.625 C1281.82292,769.687505 1284.28644,770.874993 1287.95312,772.1875 C1291.01564,773.291672 1293.24478,774.286454 1294.64062,775.171875 C1296.03647,776.057296 1297.08333,777.062494 1297.78125,778.1875 C1298.47917,779.312506 1298.82812,780.635409 1298.82812,782.15625 L1298.82812,782.15625 Z M1310.67188,791 L1307.57812,791 L1307.57812,757.03125 L1310.67188,757.03125 L1310.67188,791 Z M1307.14062,747.59375 C1307.14062,745.59374 1307.79687,744.59375 1309.10938,744.59375 C1309.75521,744.59375 1310.26041,744.854164 1310.625,745.375 C1310.98959,745.895836 1311.17188,746.635412 1311.17188,747.59375 C1311.17188,748.531255 1310.98959,749.270831 1310.625,749.8125 C1310.26041,750.354169 1309.75521,750.625 1309.10938,750.625 C1307.79687,750.625 1307.14062,749.614593 1307.14062,747.59375 L1307.14062,747.59375 Z M1348.54688,757.03125 L1348.54688,759.1875 L1341.51562,759.625 C1343.39063,761.958345 1344.32812,764.520819 1344.32812,767.3125 C1344.32812,770.58335 1343.23959,773.234365 1341.0625,775.265625 C1338.88541,777.296885 1335.96356,778.3125 1332.29688,778.3125 C1330.7552,778.3125 1329.67188,778.250001 1329.04688,778.125 C1327.8177,778.770837 1326.88021,779.531246 1326.23438,780.40625 C1325.58854,781.281254 1325.26562,782.208328 1325.26562,783.1875 C1325.26562,784.270839 1325.67708,785.062497 1326.5,785.5625 C1327.32292,786.062503 1328.70312,786.3125 1330.64062,786.3125 L1336.57812,786.3125 C1340.26564,786.3125 1343.08853,787.057284 1345.04688,788.546875 C1347.00522,790.036466 1347.98438,792.239569 1347.98438,795.15625 C1347.98438,798.739601 1346.53126,801.505199 1343.625,803.453125 C1340.71874,805.401051 1336.57815,806.375 1331.20312,806.375 C1326.93227,806.375 1323.62501,805.552092 1321.28125,803.90625 C1318.93749,802.260408 1317.76562,799.968765 1317.76562,797.03125 C1317.76562,794.697905 1318.48958,792.760424 1319.9375,791.21875 C1321.38542,789.677076 1323.34895,788.625003 1325.82812,788.0625 C1324.80729,787.624998 1323.98959,787.005212 1323.375,786.203125 C1322.76041,785.401038 1322.45312,784.479172 1322.45312,783.4375 C1322.45312,781.166655 1323.90103,779.166675 1326.79688,777.4375 C1324.8177,776.624996 1323.27605,775.348967 1322.17188,773.609375 C1321.0677,771.869783 1320.51562,769.875011 1320.51562,767.625 C1320.51562,764.22915 1321.59374,761.505219 1323.75,759.453125 C1325.90626,757.401031 1328.81769,756.375 1332.48438,756.375 C1334.71355,756.375 1336.4427,756.593748 1337.67188,757.03125 L1348.54688,757.03125 Z M1321.04688,796.75 C1321.04688,801.41669 1324.51559,803.75 1331.45312,803.75 C1340.36984,803.75 1344.82812,800.906278 1344.82812,795.21875 C1344.82812,793.177073 1344.13022,791.697921 1342.73438,790.78125 C1341.33853,789.864579 1339.07814,789.40625 1335.95312,789.40625 L1330.39062,789.40625 C1324.16143,789.40625 1321.04688,791.854142 1321.04688,796.75 L1321.04688,796.75 Z M1323.64062,767.625 C1323.64062,770.250013 1324.43749,772.286451 1326.03125,773.734375 C1327.62501,775.182299 1329.7552,775.90625 1332.42188,775.90625 C1335.25522,775.90625 1337.42708,775.187507 1338.9375,773.75 C1340.44792,772.312493 1341.20312,770.22918 1341.20312,767.5 C1341.20312,764.604152 1340.42709,762.432299 1338.875,760.984375 C1337.32291,759.536451 1335.15106,758.8125 1332.35938,758.8125 C1329.65103,758.8125 1327.52084,759.588534 1325.96875,761.140625 C1324.41666,762.692716 1323.64062,764.854153 1323.64062,767.625 L1323.64062,767.625 Z M1379.20312,791 L1379.20312,768.96875 C1379.20312,765.552066 1378.48438,763.067716 1377.04688,761.515625 C1375.60937,759.963534 1373.38022,759.1875 1370.35938,759.1875 C1366.29685,759.1875 1363.32293,760.213531 1361.4375,762.265625 C1359.55207,764.317719 1358.60938,767.64581 1358.60938,772.25 L1358.60938,791 L1355.51562,791 L1355.51562,757.03125 L1358.14062,757.03125 L1358.73438,761.6875 L1358.92188,761.6875 C1361.13022,758.145816 1365.05726,756.375 1370.70312,756.375 C1378.4115,756.375 1382.26562,760.510375 1382.26562,768.78125 L1382.26562,791 L1379.20312,791 Z M1392.64062,788.5625 C1392.64062,786.520823 1393.47395,785.5 1395.14062,785.5 C1396.84897,785.5 1397.70312,786.520823 1397.70312,788.5625 C1397.70312,790.604177 1396.84897,791.625 1395.14062,791.625 C1393.47395,791.625 1392.64062,790.604177 1392.64062,788.5625 L1392.64062,788.5625 Z M1445.39062,747.53125 C1439.66143,747.53125 1435.15106,749.364565 1431.85938,753.03125 C1428.56769,756.697935 1426.92188,761.718718 1426.92188,768.09375 C1426.92188,774.614616 1428.47394,779.677065 1431.57812,783.28125 C1434.68231,786.885435 1439.11976,788.6875 1444.89062,788.6875 C1448.72398,788.6875 1452.24478,788.197922 1455.45312,787.21875 L1455.45312,790.03125 C1452.43228,791.093755 1448.66148,791.625 1444.14062,791.625 C1437.72393,791.625 1432.67189,789.552104 1428.98438,785.40625 C1425.29686,781.260396 1423.45312,775.468787 1423.45312,768.03125 C1423.45312,763.385393 1424.33332,759.291684 1426.09375,755.75 C1427.85418,752.208316 1430.3854,749.473968 1433.6875,747.546875 C1436.9896,745.619782 1440.8281,744.65625 1445.20312,744.65625 C1449.66148,744.65625 1453.65102,745.489575 1457.17188,747.15625 L1455.89062,750.03125 C1452.55728,748.364575 1449.05731,747.53125 1445.39062,747.53125 L1445.39062,747.53125 Z M1478.23438,756.375 C1479.67188,756.375 1481.21353,756.520832 1482.85938,756.8125 L1482.26562,759.78125 C1480.84895,759.427082 1479.38022,759.25 1477.85938,759.25 C1474.96353,759.25 1472.58855,760.479154 1470.73438,762.9375 C1468.8802,765.395846 1467.95312,768.499981 1467.95312,772.25 L1467.95312,791 L1464.85938,791 L1464.85938,757.03125 L1467.48438,757.03125 L1467.79688,763.15625 L1468.01562,763.15625 C1469.41147,760.656237 1470.90103,758.901047 1472.48438,757.890625 C1474.06772,756.880203 1475.98436,756.375 1478.23438,756.375 L1478.23438,756.375 Z M1502.20312,791.625 C1497.2656,791.625 1493.41668,790.104182 1490.65625,787.0625 C1487.89582,784.020818 1486.51562,779.760444 1486.51562,774.28125 C1486.51562,768.864556 1487.84895,764.526058 1490.51562,761.265625 C1493.18231,758.005192 1496.77602,756.375 1501.29688,756.375 C1505.2969,756.375 1508.45311,757.770819 1510.76562,760.5625 C1513.07814,763.354181 1514.23438,767.145809 1514.23438,771.9375 L1514.23438,774.4375 L1489.76562,774.4375 C1489.80729,779.10419 1490.89582,782.666654 1493.03125,785.125 C1495.16668,787.583346 1498.22394,788.8125 1502.20312,788.8125 C1504.14063,788.8125 1505.84374,788.677085 1507.3125,788.40625 C1508.78126,788.135415 1510.64061,787.552088 1512.89062,786.65625 L1512.89062,789.46875 C1510.97395,790.302087 1509.20313,790.86979 1507.57812,791.171875 C1505.95312,791.47396 1504.16147,791.625 1502.20312,791.625 L1502.20312,791.625 Z M1501.29688,759.125 C1498.02603,759.125 1495.40105,760.203114 1493.42188,762.359375 C1491.4427,764.515636 1490.28646,767.62498 1489.95312,771.6875 L1510.95312,771.6875 C1510.95312,767.74998 1510.09897,764.671886 1508.39062,762.453125 C1506.68228,760.234364 1504.31772,759.125 1501.29688,759.125 L1501.29688,759.125 Z M1544.23438,791 L1543.45312,785.625 L1543.20312,785.625 C1541.49478,787.812511 1539.73959,789.35937 1537.9375,790.265625 C1536.13541,791.17188 1534.00522,791.625 1531.54688,791.625 C1528.21353,791.625 1525.6198,790.770842 1523.76562,789.0625 C1521.91145,787.354158 1520.98438,784.989598 1520.98438,781.96875 C1520.98438,778.656233 1522.36457,776.083342 1525.125,774.25 C1527.88543,772.416658 1531.88018,771.447917 1537.10938,771.34375 L1543.57812,771.15625 L1543.57812,768.90625 C1543.57812,765.677067 1542.92188,763.239592 1541.60938,761.59375 C1540.29687,759.947908 1538.18231,759.125 1535.26562,759.125 C1532.11978,759.125 1528.85939,759.999991 1525.48438,761.75 L1524.32812,759.0625 C1528.05731,757.312491 1531.74477,756.4375 1535.39062,756.4375 C1539.11981,756.4375 1541.90624,757.40624 1543.75,759.34375 C1545.59376,761.28126 1546.51562,764.302063 1546.51562,768.40625 L1546.51562,791 L1544.23438,791 Z M1531.73438,788.8125 C1535.35939,788.8125 1538.21874,787.776052 1540.3125,785.703125 C1542.40626,783.630198 1543.45312,780.750018 1543.45312,777.0625 L1543.45312,773.71875 L1537.51562,773.96875 C1532.74477,774.197918 1529.34376,774.942702 1527.3125,776.203125 C1525.28124,777.463548 1524.26562,779.42707 1524.26562,782.09375 C1524.26562,784.218761 1524.91666,785.869786 1526.21875,787.046875 C1527.52084,788.223964 1529.35936,788.8125 1531.73438,788.8125 L1531.73438,788.8125 Z M1566.48438,788.875 C1568.44272,788.875 1570.15103,788.708335 1571.60938,788.375 L1571.60938,790.875 C1570.10937,791.375002 1568.38022,791.625 1566.42188,791.625 C1563.42186,791.625 1561.20834,790.822925 1559.78125,789.21875 C1558.35416,787.614575 1557.64062,785.093767 1557.64062,781.65625 L1557.64062,759.71875 L1552.60938,759.71875 L1552.60938,757.90625 L1557.64062,756.5 L1559.20312,748.8125 L1560.79688,748.8125 L1560.79688,757.03125 L1570.76562,757.03125 L1570.76562,759.71875 L1560.79688,759.71875 L1560.79688,781.21875 C1560.79688,783.82293 1561.2552,785.749994 1562.17188,787 C1563.08855,788.250006 1564.52603,788.875 1566.48438,788.875 L1566.48438,788.875 Z M1592.67188,791.625 C1587.73435,791.625 1583.88543,790.104182 1581.125,787.0625 C1578.36457,784.020818 1576.98438,779.760444 1576.98438,774.28125 C1576.98438,768.864556 1578.3177,764.526058 1580.98438,761.265625 C1583.65106,758.005192 1587.24477,756.375 1591.76562,756.375 C1595.76564,756.375 1598.92186,757.770819 1601.23438,760.5625 C1603.54689,763.354181 1604.70312,767.145809 1604.70312,771.9375 L1604.70312,774.4375 L1580.23438,774.4375 C1580.27604,779.10419 1581.36457,782.666654 1583.5,785.125 C1585.63543,787.583346 1588.69269,788.8125 1592.67188,788.8125 C1594.60938,788.8125 1596.31249,788.677085 1597.78125,788.40625 C1599.25001,788.135415 1601.10936,787.552088 1603.35938,786.65625 L1603.35938,789.46875 C1601.4427,790.302087 1599.67188,790.86979 1598.04688,791.171875 C1596.42187,791.47396 1594.63022,791.625 1592.67188,791.625 L1592.67188,791.625 Z M1591.76562,759.125 C1588.49478,759.125 1585.8698,760.203114 1583.89062,762.359375 C1581.91145,764.515636 1580.75521,767.62498 1580.42188,771.6875 L1601.42188,771.6875 C1601.42188,767.74998 1600.56772,764.671886 1598.85938,762.453125 C1597.15103,760.234364 1594.78647,759.125 1591.76562,759.125 L1591.76562,759.125 Z M1613.45312,788.5625 C1613.45312,786.520823 1614.28645,785.5 1615.95312,785.5 C1617.66147,785.5 1618.51562,786.520823 1618.51562,788.5625 C1618.51562,790.604177 1617.66147,791.625 1615.95312,791.625 C1614.28645,791.625 1613.45312,790.604177 1613.45312,788.5625 L1613.45312,788.5625 Z" id="Learn.-Design.-Creat" fill="#FFFFFF" sketch:type="MSShapeGroup"></path>
        </g>
    </g>
</svg>